<?xml version="1.0" standalone="no"?>
<!DOCTYPE svg PUBLIC "-//W3C//DTD SVG 20010904//EN"
 "http://www.w3.org/TR/2001/REC-SVG-20010904/DTD/svg10.dtd">
<svg version="1.0" xmlns="http://www.w3.org/2000/svg"
 width="500.000000pt" height="500.000000pt" viewBox="0 0 500.000000 500.000000"
 preserveAspectRatio="xMidYMid meet">

<g transform="translate(0.000000,500.000000) scale(0.100000,-0.100000)"
fill="#000000" stroke="none">
<path d="M0 2500 l0 -2500 2500 0 2500 0 0 2500 0 2500 -2500 0 -2500 0 0
-2500z m2835 2410 c167 -31 276 -55 335 -72 506 -152 940 -452 1257 -870 153
-202 250 -383 353 -653 107 -283 162 -712 130 -1013 -19 -168 -44 -307 -89
-477 -11 -41 -64 -187 -95 -260 -253 -607 -785 -1112 -1404 -1334 -224 -81
-378 -113 -642 -137 -265 -24 -535 0 -807 72 -408 108 -791 329 -1086 627 -59
60 -134 141 -165 179 -55 68 -182 244 -182 253 0 2 -11 20 -24 40 -36 53 -130
238 -164 325 -85 215 -116 330 -158 590 -19 112 -23 543 -6 630 5 30 16 89 22
130 87 531 399 1066 835 1429 381 317 856 514 1335 555 88 8 496 -3 555 -14z"/>
<path d="M2320 4670 c-165 -12 -375 -55 -375 -77 0 -14 532 -553 545 -553 14
0 560 552 555 561 -6 8 -113 32 -240 53 -112 19 -346 27 -485 16z"/>
<path d="M1534 4450 c-138 -70 -168 -87 -264 -154 -388 -270 -683 -658 -828
-1091 -37 -113 -45 -139 -72 -258 -40 -180 -53 -524 -25 -718 23 -160 63 -328
110 -459 36 -101 142 -318 201 -410 43 -67 129 -187 144 -200 3 -3 28 -33 55
-68 107 -135 338 -331 518 -438 102 -61 252 -134 275 -134 10 0 200 182 422
405 327 326 409 403 426 399 11 -3 202 -187 424 -410 335 -335 407 -403 424
-398 12 4 53 22 93 41 286 135 576 370 774 628 184 239 317 517 389 810 38
156 49 230 58 399 14 272 -27 582 -108 806 -83 231 -191 437 -325 615 -127
169 -369 394 -560 519 -80 52 -305 166 -328 166 -11 0 -180 -162 -427 -410
-225 -225 -414 -410 -421 -410 -7 0 -197 185 -421 410 -225 226 -415 410 -422
410 -7 0 -58 -22 -112 -50z m80 -966 c11 -29 7 -222 -6 -230 -6 -4 -59 -8
-117 -9 -58 -1 -109 -2 -113 -3 -5 -1 -8 -132 -8 -291 l0 -289 -29 -24 c-49
-38 -114 -84 -148 -104 -18 -10 -33 -23 -33 -30 0 -14 27 -37 66 -57 17 -9 56
-37 87 -62 l57 -46 2 -287 3 -287 110 -5 c61 -3 116 -9 123 -13 8 -6 12 -41
12 -117 0 -98 -2 -110 -20 -120 -12 -7 -101 -9 -247 -8 l-228 3 -3 347 -2 347
-43 34 c-23 19 -62 47 -87 62 -109 69 -270 178 -281 191 -9 11 -8 18 2 31 12
14 120 89 212 148 167 106 185 120 191 148 3 16 6 174 6 352 0 177 3 325 7
328 3 4 113 7 244 7 207 0 238 -2 243 -16z m2253 4 c4 -7 10 -168 13 -357 l5
-345 154 -103 c85 -57 156 -103 158 -103 17 0 93 -64 93 -78 0 -11 -43 -45
-113 -91 -61 -41 -154 -101 -204 -135 l-93 -61 0 -342 c0 -297 -2 -344 -16
-357 -13 -14 -49 -16 -243 -16 -163 0 -230 3 -239 12 -17 17 -16 222 1 236 7
6 62 13 123 14 l109 3 3 285 c2 278 3 285 25 308 21 23 79 63 160 111 26 16
35 27 29 37 -4 7 -50 41 -102 74 -52 33 -98 66 -102 73 -4 6 -8 141 -8 299 0
334 14 302 -133 297 -51 -2 -98 0 -104 4 -14 9 -19 227 -6 240 3 4 113 7 244
7 179 0 240 -3 246 -12z m-1041 -269 c186 -33 351 -190 404 -383 20 -73 21
-95 18 -379 -5 -336 -9 -360 -75 -471 -73 -120 -209 -218 -341 -245 -31 -6
-171 -11 -339 -11 -310 0 -354 6 -462 58 -130 64 -240 209 -276 367 -13 56 -6
626 9 680 52 195 219 353 405 385 71 12 589 11 657 -1z"/>
<path d="M2185 2903 c-44 -23 -84 -63 -108 -108 -21 -38 -22 -51 -21 -315 1
-256 3 -279 22 -315 11 -22 33 -52 49 -67 54 -51 93 -58 348 -58 128 0 256 5
286 10 70 13 120 49 148 106 21 42 23 62 28 267 8 337 -11 416 -115 473 -42
24 -46 24 -325 24 -237 -1 -287 -3 -312 -17z"/>
<path d="M2208 702 c-148 -147 -268 -271 -268 -274 0 -14 38 -27 136 -47 158
-31 332 -44 504 -38 204 8 460 52 460 78 0 15 -535 549 -551 549 -8 0 -134
-121 -281 -268z"/>
</g>
</svg>
